<?xml version="1.0" ?><?xml-stylesheet type="text/css" href="../../style.css" ?><svg class="svg-container" enable-background="new 0 0 512.026 512.026" height="512" viewBox="0 0 512.026 512.026" width="512" xmlns="http://www.w3.org/2000/svg"><g id="XMLID_1765_"><g id="XMLID_300_"><path class="svg-content" id="XMLID_459_" d="m504.231 424.994c-6.988-12.101-17.855-21.079-30.898-25.668 19.686-13.529 29.748-38.48 23.222-62.835-8.277-30.893-40.148-49.289-71.034-41.013l-10.069 2.698c6.234-15.659 10.086-32.121 11.476-49.172.449-5.504-3.649-10.33-9.154-10.779-5.509-.453-10.331 3.649-10.779 9.154-1.653 20.268-7.235 39.594-16.601 57.511l-48.952 13.117c.718-4.51 1.102-9.086 1.102-13.715 0-16.059-4.3-25.467-8.457-34.564-4.746-10.386-9.653-21.124-9.653-46.055 0-3.987-2.369-7.594-6.028-9.178-3.657-1.583-7.908-.844-10.816 1.888-9.601 9.014-15.781 18.776-19.726 28.063-2.944-4.095-6.518-8.068-10.854-11.667-10.198-8.466-11.885-17.21-6.014-31.188 1.597-3.802.696-8.194-2.268-11.061-2.965-2.867-7.383-3.619-11.131-1.896-20.198 9.294-31.355 22.546-37.376 35.639.165-1.049.36-2.109.589-3.182.986-4.607-1.377-9.278-5.674-11.212-4.297-1.935-9.361-.605-12.155 3.188-24.105 32.721-33.496 58.298-33.496 91.224 0 4.629.384 9.205 1.102 13.715l-48.94-13.113c-11.206-21.486-17.12-45.595-17.12-70.005 0-27.115 6.966-42.358 15.032-60.01 9.214-20.163 19.471-42.606 22.377-85.17 19.466 25.27 26.493 51.768 28.787 71.148.527 4.457 3.961 8.017 8.396 8.706 4.436.69 8.786-1.661 10.641-5.749 10.238-22.558 24.307-41.363 41.816-55.897 16.948-14.067 26.735-29.565 29.92-47.38 1.669-9.337 1.465-19.195-.644-29.77 30.625 20.172 48.289 48.716 52.607 85.125 4.004 33.753-5.388 62.089-5.478 62.355-1.521 4.456.273 9.37 4.307 11.799 4.033 2.426 9.216 1.713 12.441-1.717 1.786-1.898 36.604-39.677 39.227-96.899 16.016 25.199 26.688 47.76 33.543 70.512 1.594 5.286 7.171 8.283 12.461 6.689 5.287-1.593 8.282-7.172 6.689-12.459-10.197-33.842-27.98-66.9-57.661-107.193-2.795-3.795-7.858-5.124-12.155-3.188-4.297 1.934-6.661 6.604-5.675 11.212 5.529 25.836 3.275 51.65-6.695 76.852.022-6.201-.281-12.757-1.051-19.535-4.052-35.674-22.152-84.306-85.375-113.396-3.748-1.722-8.167-.971-11.131 1.897-2.965 2.866-3.866 7.259-2.268 11.062 14.301 34.045 9.565 57.566-15.835 78.648-13.03 10.815-24.356 23.664-33.852 38.378-6.783-23.119-20.023-49.635-45.363-73.426-2.907-2.73-7.158-3.471-10.816-1.888-3.66 1.584-6.028 5.19-6.028 9.178 0 55.024-10.866 78.802-21.374 101.796-8.661 18.952-16.841 36.854-16.841 68.322 0 21.73 4.145 43.256 12.088 63.298l-10.107-2.708c-30.891-8.28-62.758 10.121-71.035 41.013-6.526 24.354 3.536 49.305 23.221 62.835-13.042 4.589-23.91 13.568-30.897 25.668-7.746 13.417-9.804 29.048-5.794 44.012 4.01 14.965 13.607 27.473 27.023 35.219 8.938 5.16 18.855 7.795 28.906 7.795 5.037 0 10.11-.662 15.106-2.001l182.977-49.029 182.977 49.029c4.997 1.339 10.067 2.001 15.105 2.001 10.05 0 19.969-2.636 28.906-7.795 13.416-7.746 23.014-20.254 27.023-35.219 4.007-14.966 1.949-30.597-5.797-44.014zm-73.534-110.197c20.236-5.418 41.116 6.632 46.54 26.87 2.627 9.805 1.278 20.045-3.796 28.836-5.075 8.79-13.271 15.078-23.074 17.705l-340.199 91.156c6.135-12.563 7.535-26.746 3.881-40.381-3.654-13.636-11.958-25.218-23.552-33.03zm-241.214-10.504c0-19.119 3.594-35.078 12.442-52.325 5.167 20.295 16.955 33.081 17.692 33.864 3.216 3.421 8.374 4.124 12.405 1.718s5.839-7.312 4.355-11.766c-.543-1.629-10.869-33.841 11.48-56.588.968 11.027 6.435 20.719 16.378 28.974 12.703 10.543 16.171 26.503 17.094 33.288.151 2.64.399 4.267.449 4.572.842 5.194 5.556 8.86 10.805 8.355 5.238-.491 9.201-4.958 9.062-10.218-.007-.289-.066-2.042-.417-4.808-.233-5.412.164-16.346 5.544-28.254 2.314 12.034 5.959 20.009 9.124 26.935 3.859 8.445 6.647 14.547 6.647 26.252 0 6.699-.998 13.257-2.938 19.566l-63.592 17.04-63.592-17.04c-1.94-6.309-2.938-12.867-2.938-19.565zm-154.694 37.374c5.423-20.238 26.304-32.291 46.54-26.87l136.047 36.454-54.093 14.494-72.457-19.415c-5.337-1.431-10.819 1.736-12.248 7.071-1.43 5.334 1.736 10.817 7.071 12.247l38.998 10.449-54.091 14.494-8.896-2.384c-20.24-5.422-32.294-26.301-26.871-46.54zm4.236 145.237c-8.79-5.075-15.078-13.27-17.705-23.074-2.627-9.805-1.279-20.045 3.796-28.835 5.075-8.791 13.269-15.078 23.074-17.705 3.274-.877 6.596-1.311 9.897-1.311 6.584 0 13.083 1.728 18.938 5.107 8.79 5.075 15.079 13.27 17.706 23.073 2.627 9.805 1.279 20.045-3.796 28.836-5.075 8.79-13.27 15.078-23.074 17.705-9.805 2.626-20.046 1.278-28.836-3.796zm367.48-66.238c-3.844 5.485-6.742 11.655-8.527 18.317-3.654 13.635-2.253 27.818 3.882 40.381l-107.21-28.727zm84.201 43.164c-2.627 9.804-8.915 17.999-17.705 23.074-8.792 5.074-19.032 6.423-28.836 3.796s-17.998-8.915-23.073-17.705c-5.075-8.791-6.423-19.031-3.796-28.836 2.627-9.804 8.914-17.998 17.704-23.073 5.855-3.38 12.354-5.107 18.939-5.107 3.301 0 6.623.435 9.897 1.311 9.805 2.627 17.999 8.914 23.074 17.705 5.075 8.79 6.423 19.03 3.796 28.835z"/><path class="svg-content" id="XMLID_532_" d="m243.792 393.866-88.865 23.811c-5.335 1.43-8.501 6.913-7.071 12.247 1.197 4.468 5.237 7.415 9.653 7.415.856 0 1.728-.111 2.595-.344l88.865-23.812c5.334-1.43 8.5-6.913 7.071-12.247s-6.915-8.501-12.248-7.07z"/><path class="svg-content" id="XMLID_533_" d="m302.714 378.078c-5.335 1.43-8.501 6.913-7.071 12.247 1.197 4.468 5.237 7.415 9.653 7.415.856 0 1.728-.111 2.594-.344l118.486-31.748c5.335-1.43 8.501-6.913 7.071-12.247s-6.913-8.501-12.247-7.071z"/><path class="svg-content" id="XMLID_534_" d="m408.832 196.116c-1.869 1.86-2.93 4.44-2.93 7.08 0 2.63 1.061 5.2 2.93 7.07 1.86 1.86 4.431 2.93 7.07 2.93 2.63 0 5.2-1.069 7.07-2.93 1.859-1.87 2.93-4.441 2.93-7.07 0-2.64-1.07-5.21-2.93-7.08-1.86-1.859-4.441-2.92-7.07-2.92-2.639 0-5.219 1.061-7.07 2.92z"/></g></g></svg>