<?xml version="1.0" ?><?xml-stylesheet type="text/css" href="../../style.css" ?><svg class="svg-container" enable-background="new 0 0 512 512" height="512" viewBox="0 0 512 512" width="512" xmlns="http://www.w3.org/2000/svg"><g><g><g><path class="svg-content" d="m482.104 439.495h-115.878v-58.435c39.83-4.941 70.759-38.997 70.759-80.143v-191.27c0-44.531-36.228-80.759-80.759-80.759-34.083 0-63.492 21-75.274 51.357-2.192-2.377-4.502-4.665-6.925-6.855.027-.803.04-1.606.04-2.407-.001-39.14-31.844-70.983-70.984-70.983-39.141 0-70.984 31.843-70.984 70.984 0 .801.014 1.604.041 2.408-22.216 20.068-34.855 48.385-34.855 78.491 0 8.562 1.022 17.044 3.043 25.284-16.358 21.987-25.311 48.928-25.311 76.442 0 67.251 52.106 122.561 118.067 127.68v27.375c-8.402-7.176-19.296-11.513-31.186-11.513-3.237 0-6.437.319-9.571.954-10.621-11.297-25.576-17.875-41.233-17.875-19.293 0-36.839 9.599-47.231 25.448-20.832.322-38.184 15.255-42.239 34.981-12.474 3.597-21.624 15.116-21.624 28.732v32.609c0 5.523 4.477 10 10 10h200.794c5.523 0 10-4.477 10-10s-4.477-10-10-10h-190.794v-22.609c0-5.456 4.439-9.896 9.896-9.896h452.209c5.457 0 9.896 4.439 9.896 9.896v22.609h-190.794c-5.523 0-10 4.477-10 10s4.477 10 10 10h200.793c5.523 0 10-4.477 10-10v-32.609c0-16.485-13.411-29.896-29.896-29.896zm-191.936-92.067c13.091 18.687 33.325 30.864 56.057 33.642v58.425h-133.142v-58.206c29.654-2.301 56.508-14.746 77.085-33.861zm66.058-298.539c33.502 0 60.759 27.256 60.759 60.759v191.27c0 30.097-21.997 55.154-50.759 59.936v-77.278l26.535-26.535c3.905-3.905 3.905-10.237 0-14.143-3.905-3.905-10.237-3.905-14.143 0l-12.393 12.392v-83.439c0-5.523-4.477-10-10-10s-10 4.477-10 10v189.014c-17.531-2.873-32.862-13.231-42.1-28.655 16.928-21.712 27.023-49 27.023-78.601 0-27.514-8.953-54.455-25.31-76.442 2.021-8.241 3.043-16.723 3.043-25.284 0-17.96-4.499-35.284-12.846-50.599 4.109-30.002 29.656-52.395 60.191-52.395zm-261.21 204.72c0-24.682 8.537-48.816 24.037-67.957 2.079-2.566 2.756-5.993 1.81-9.157-2.375-7.949-3.58-16.23-3.58-24.612 0-25.843 11.486-50.061 31.513-66.445 2.619-2.143 3.977-5.465 3.608-8.829-.203-1.854-.306-3.746-.306-5.625 0-28.112 22.872-50.984 50.985-50.984s50.984 22.872 50.984 50.984c0 1.878-.103 3.771-.306 5.627-.368 3.363.99 6.685 3.609 8.827 20.027 16.384 31.513 40.602 31.513 66.445 0 8.382-1.205 16.663-3.58 24.612-.946 3.164-.269 6.59 1.81 9.157 15.501 19.141 24.038 43.275 24.038 67.957 0 56.217-43.148 102.545-98.066 107.608v-59.988l38.731-38.731c3.905-3.905 3.905-10.237-.001-14.142-3.905-3.905-10.237-3.905-14.142.001l-24.588 24.589v-56.831l30.12-30.12c3.905-3.905 3.905-10.237 0-14.143-3.905-3.905-10.237-3.905-14.143 0l-15.977 15.977v-67.495c0-5.523-4.477-10-10-10s-10 4.477-10 10v67.495l-15.977-15.977c-3.905-3.905-10.237-3.905-14.143 0-3.905 3.905-3.905 10.237 0 14.143l30.12 30.12v56.831l-24.589-24.589c-3.905-3.905-10.237-3.905-14.143 0-3.905 3.905-3.905 10.237 0 14.142l38.731 38.732v59.988c-54.92-5.064-98.068-51.392-98.068-107.61zm-52.086 185.886c4.234-9.117 14.097-15.157 25.069-13.569 4.271.622 8.454-1.573 10.379-5.433 6.235-12.499 18.771-20.263 32.715-20.263 11.66 0 22.723 5.65 29.591 15.115 2.626 3.62 7.337 5.054 11.538 3.514 3.089-1.134 6.344-1.708 9.674-1.708 13.519 0 24.837 9.602 27.494 22.344z"/><path class="svg-content" d="m265.42 498.17c-1.609-3.863-5.587-6.377-9.771-6.15-4.157.225-7.823 3.095-9.029 7.079-1.187 3.921.197 8.344 3.474 10.832 3.386 2.57 8.094 2.727 11.636.379 3.94-2.611 5.476-7.782 3.69-12.14z"/></g></g></g></svg>