<svg width="44" height="44" viewBox="0 0 44 44" fill="none" xmlns="http://www.w3.org/2000/svg">
  <path transform="translate(5,5)" d="M4 8C6.20914 8 8 6.20914 8 4C8 1.79086 6.20914 0 4 0C1.79086 0 0 1.79086 0 4C0 6.20914 1.79086 8 4 8Z" fill="white" fill-opacity="0.3"/>
  <path transform="translate(15,14)" d="M19.2218 0L29 9.7782V25C29 27.7614 26.7614 30 24 30H12.2218L0.721802 18.5L19.2218 0Z" fill="#AEB5B9" fill-opacity="0.3"/>
  <path transform="translate(0,24)" d="M27.2218 20L7.2218 0L0 7.2218V15C0 17.7614 2.23858 20 5 20H27.2218Z" fill="#AEB5B9" fill-opacity="0.5"/>
</svg>